<?xml version="1.0" encoding="UTF-8" standalone="no"?>
<!DOCTYPE svg PUBLIC "-//W3C//DTD SVG 1.1//EN"
 "http://www.w3.org/Graphics/SVG/1.1/DTD/svg11.dtd">
<!-- Generated by graphviz version 14.0.4 (20251115.1723)
 -->
<!-- Pages: 1 -->
<svg width="578pt" height="127pt"
 viewBox="0.00 0.00 578.00 127.00" xmlns="http://www.w3.org/2000/svg" xmlns:xlink="http://www.w3.org/1999/xlink">
<g id="graph0" class="graph" transform="scale(1 1) rotate(0) translate(4 123)">
<polygon fill="white" stroke="none" points="-4,4 -4,-123 574,-123 574,4 -4,4"/>
<!-- 2455425740448 -->
<g id="node1" class="node">
<title>2455425740448</title>
<polygon fill="none" stroke="black" points="233,-82.5 233,-118.5 341.5,-118.5 341.5,-82.5 233,-82.5"/>
<text xml:space="preserve" text-anchor="middle" x="244" y="-95.7" font-family="Times New Roman,serif" font-size="14.00">c</text>
<polyline fill="none" stroke="black" points="255,-83 255,-118.5"/>
<text xml:space="preserve" text-anchor="middle" x="298.25" y="-95.7" font-family="Times New Roman,serif" font-size="14.00">data 10.0000</text>
</g>
<!-- 2455425734496+ -->
<g id="node7" class="node">
<title>2455425734496+</title>
<ellipse fill="none" stroke="black" cx="404.5" cy="-72.5" rx="27" ry="18"/>
<text xml:space="preserve" text-anchor="middle" x="404.5" y="-67.45" font-family="Times New Roman,serif" font-size="14.00">+</text>
</g>
<!-- 2455425740448&#45;&gt;2455425734496+ -->
<g id="edge4" class="edge">
<title>2455425740448&#45;&gt;2455425734496+</title>
<path fill="none" stroke="black" d="M341.83,-87.48C350.54,-85.37 359.37,-83.22 367.53,-81.24"/>
<polygon fill="black" stroke="black" points="368.16,-84.69 377.05,-78.93 366.51,-77.89 368.16,-84.69"/>
</g>
<!-- 2455425737904 -->
<g id="node2" class="node">
<title>2455425737904</title>
<polygon fill="none" stroke="black" points="2.62,-55.5 2.62,-91.5 104.38,-91.5 104.38,-55.5 2.62,-55.5"/>
<text xml:space="preserve" text-anchor="middle" x="13.62" y="-68.7" font-family="Times New Roman,serif" font-size="14.00">a</text>
<polyline fill="none" stroke="black" points="24.62,-56 24.62,-91.5"/>
<text xml:space="preserve" text-anchor="middle" x="64.5" y="-68.7" font-family="Times New Roman,serif" font-size="14.00">data 2.0000</text>
</g>
<!-- 2455425740112* -->
<g id="node5" class="node">
<title>2455425740112*</title>
<ellipse fill="none" stroke="black" cx="170" cy="-45.5" rx="27" ry="18"/>
<text xml:space="preserve" text-anchor="middle" x="170" y="-40.45" font-family="Times New Roman,serif" font-size="14.00">*</text>
</g>
<!-- 2455425737904&#45;&gt;2455425740112* -->
<g id="edge3" class="edge">
<title>2455425737904&#45;&gt;2455425740112*</title>
<path fill="none" stroke="black" d="M104.72,-61.22C114.35,-58.86 124.26,-56.44 133.32,-54.23"/>
<polygon fill="black" stroke="black" points="133.9,-57.69 142.78,-51.91 132.24,-50.89 133.9,-57.69"/>
</g>
<!-- 2455425739584 -->
<g id="node3" class="node">
<title>2455425739584</title>
<polygon fill="none" stroke="black" points="0,-0.5 0,-36.5 107,-36.5 107,-0.5 0,-0.5"/>
<text xml:space="preserve" text-anchor="middle" x="11.38" y="-13.7" font-family="Times New Roman,serif" font-size="14.00">b</text>
<polyline fill="none" stroke="black" points="22.75,-1 22.75,-36.5"/>
<text xml:space="preserve" text-anchor="middle" x="64.88" y="-13.7" font-family="Times New Roman,serif" font-size="14.00">data &#45;3.0000</text>
</g>
<!-- 2455425739584&#45;&gt;2455425740112* -->
<g id="edge6" class="edge">
<title>2455425739584&#45;&gt;2455425740112*</title>
<path fill="none" stroke="black" d="M107.39,-30.97C116.08,-33.02 124.89,-35.1 133.04,-37.02"/>
<polygon fill="black" stroke="black" points="132.01,-40.37 142.55,-39.26 133.62,-33.56 132.01,-40.37"/>
</g>
<!-- 2455425740112 -->
<g id="node4" class="node">
<title>2455425740112</title>
<polygon fill="none" stroke="black" points="235.25,-27.5 235.25,-63.5 339.25,-63.5 339.25,-27.5 235.25,-27.5"/>
<text xml:space="preserve" text-anchor="middle" x="245.12" y="-40.7" font-family="Times New Roman,serif" font-size="14.00"> </text>
<polyline fill="none" stroke="black" points="255,-28 255,-63.5"/>
<text xml:space="preserve" text-anchor="middle" x="297.12" y="-40.7" font-family="Times New Roman,serif" font-size="14.00">data &#45;6.0000</text>
</g>
<!-- 2455425740112&#45;&gt;2455425734496+ -->
<g id="edge5" class="edge">
<title>2455425740112&#45;&gt;2455425734496+</title>
<path fill="none" stroke="black" d="M339.47,-57.5C348.92,-59.71 358.6,-61.98 367.48,-64.06"/>
<polygon fill="black" stroke="black" points="366.59,-67.45 377.13,-66.32 368.19,-60.63 366.59,-67.45"/>
</g>
<!-- 2455425740112*&#45;&gt;2455425740112 -->
<g id="edge1" class="edge">
<title>2455425740112*&#45;&gt;2455425740112</title>
<path fill="none" stroke="black" d="M197.44,-45.5C205.38,-45.5 214.45,-45.5 223.68,-45.5"/>
<polygon fill="black" stroke="black" points="223.46,-49 233.46,-45.5 223.46,-42 223.46,-49"/>
</g>
<!-- 2455425734496 -->
<g id="node6" class="node">
<title>2455425734496</title>
<polygon fill="none" stroke="black" points="467.5,-54.5 467.5,-90.5 570,-90.5 570,-54.5 467.5,-54.5"/>
<text xml:space="preserve" text-anchor="middle" x="478.88" y="-67.7" font-family="Times New Roman,serif" font-size="14.00">d</text>
<polyline fill="none" stroke="black" points="490.25,-55 490.25,-90.5"/>
<text xml:space="preserve" text-anchor="middle" x="530.12" y="-67.7" font-family="Times New Roman,serif" font-size="14.00">data 4.0000</text>
</g>
<!-- 2455425734496+&#45;&gt;2455425734496 -->
<g id="edge2" class="edge">
<title>2455425734496+&#45;&gt;2455425734496</title>
<path fill="none" stroke="black" d="M431.82,-72.5C439.21,-72.5 447.57,-72.5 456.1,-72.5"/>
<polygon fill="black" stroke="black" points="455.83,-76 465.83,-72.5 455.83,-69 455.83,-76"/>
</g>
</g>
</svg>
